name C:\Users\antoi\Documents\MyRepositories\upper-imu-dc\OpenSim\subject0\MA\train_motion_filt.mot
datacolumns 10
datarows 28
range 11.16000000 11.43000000
endheader 
time	clav_prot	clav_elev	scapula_abduction	scapula_elevation	scapula_upward_rot	scapula_winging	plane_elv	shoulder_elv	axial_rot	
         11.16000000	        -22.89448232	         -5.75603260	        -12.90563360	         -5.07185965	         12.63099741	          5.99714203	        -26.10695147	         12.79334718	         41.49527582	
         11.17000000	        -22.88351246	         -5.73459449	        -12.87785994	         -5.06101636	         12.65518236	          5.98312359	        -26.13770327	         12.76340973	         41.66006943	
         11.18000000	        -22.87911250	         -5.71477030	        -12.86214443	         -5.05132498	         12.67746643	          5.97038207	        -26.16147561	         12.73528111	         41.77789140	
         11.19000000	        -22.88135007	         -5.69759893	        -12.86066206	         -5.04253517	         12.69383415	          5.96027091	        -26.16938730	         12.71423375	         41.81110566	
         11.20000000	        -22.88948693	         -5.68271861	        -12.87239890	         -5.03423901	         12.70397178	          5.95270723	        -26.16427880	         12.69910768	         41.77903045	
         11.21000000	        -22.90165620	         -5.66928870	        -12.89339350	         -5.02609961	         12.70950459	          5.94692265	        -26.15137056	         12.68579687	         41.72710827	
         11.22000000	        -22.91514682	         -5.65748474	        -12.91836180	         -5.01834328	         12.71141449	          5.94264431	        -26.13049907	         12.67233397	         41.68252150	
         11.23000000	        -22.92708781	         -5.64864779	        -12.94207636	         -5.01180894	         12.70963177	          5.94027432	        -26.09772586	         12.66030407	         41.64014807	
         11.24000000	        -22.93491242	         -5.64396539	        -12.95959757	         -5.00736059	         12.70456241	          5.94005605	        -26.05170184	         12.65258066	         41.57811264	
         11.25000000	        -22.93648702	         -5.64339959	        -12.96632641	         -5.00526204	         12.69782159	          5.94150969	        -25.99675590	         12.65109204	         41.47643482	
         11.26000000	        -22.93038851	         -5.64568695	        -12.95877679	         -5.00505997	         12.69172316	          5.94356588	        -25.94319772	         12.65537514	         41.33414433	
         11.27000000	        -22.91666755	         -5.64930889	        -12.93640776	         -5.00603784	         12.68798376	          5.94526037	        -25.90516584	         12.66246129	         41.17472476	
         11.28000000	        -22.89754153	         -5.65365632	        -12.90336405	         -5.00778130	         12.68629725	          5.94652818	        -25.89352912	         12.66892914	         41.02758625	
         11.29000000	        -22.87712132	         -5.65897525	        -12.86772898	         -5.01025165	         12.68483775	          5.94805318	        -25.91006103	         12.67226190	         40.91311944	
         11.30000000	        -22.86000067	         -5.66533397	        -12.83808116	         -5.01347567	         12.68243942	          5.95031465	        -25.95002804	         12.66991407	         40.85017129	
         11.31000000	        -22.84919994	         -5.67267137	        -12.81968031	         -5.01757478	         12.67904253	          5.95342022	        -26.00674648	         12.65995160	         40.85246511	
         11.32000000	        -22.84469031	         -5.68190485	        -12.81253174	         -5.02313262	         12.67418118	          5.95781704	        -26.07252958	         12.64358353	         40.90980392	
         11.33000000	        -22.84391401	         -5.69470157	        -12.81232608	         -5.03105509	         12.66700159	          5.96422273	        -26.14145045	         12.62384614	         41.00187444	
         11.34000000	        -22.84383760	         -5.71218739	        -12.81363828	         -5.04199387	         12.65738240	          5.97296373	        -26.21117710	         12.60206978	         41.12777931	
         11.35000000	        -22.84263229	         -5.73473371	        -12.81314936	         -5.05615986	         12.64545944	          5.98407670	        -26.27840657	         12.57835587	         41.29773528	
         11.36000000	        -22.84017662	         -5.76226249	        -12.81081602	         -5.07341873	         12.63097616	          5.99759395	        -26.33593355	         12.55372952	         41.51055889	
         11.37000000	        -22.83779266	         -5.79384929	        -12.80900136	         -5.09320065	         12.61416680	          6.01317418	        -26.37511357	         12.52999288	         41.75231512	
         11.38000000	        -22.83755536	         -5.82746597	        -12.81091839	         -5.11445368	         12.59649552	          6.02980371	        -26.38720519	         12.50887541	         42.00185807	
         11.39000000	        -22.84107735	         -5.86090053	        -12.81904977	         -5.13594378	         12.57938154	          6.04639389	        -26.36150727	         12.49255390	         42.22874293	
         11.40000000	        -22.84821085	         -5.89294390	        -12.83375893	         -5.15657468	         12.56223403	          6.06263912	        -26.28403827	         12.48454641	         42.39147619	
         11.41000000	        -22.85694481	         -5.92326767	        -12.85302677	         -5.17533999	         12.54265215	          6.07891851	        -26.13961275	         12.48878828	         42.44816436	
         11.42000000	        -22.86448662	         -5.95152600	        -12.87343923	         -5.19119472	         12.51832138	          6.09554957	        -25.91561934	         12.50776714	         42.37268405	
         11.43000000	        -22.86822603	         -5.97717007	        -12.89128764	         -5.20324847	         12.48807076	          6.11250320	        -25.60458108	         12.54217863	         42.15901915	
